<mxfile host="app.diagrams.net" modified="2024-02-08T06:48:20.904Z" agent="Mozilla/5.0 (X11; Linux x86_64) AppleWebKit/537.36 (KHTML, like Gecko) Chrome/121.0.0.0 Safari/537.36" version="23.1.2" etag="9U9aTa7ZK0V1kxSYvPpD" type="github">
  <diagram name="Page-1" id="i-un_RGyZHkvw1tNyKiX">
    <mxGraphModel>
      <root>
        <mxCell id="0" />
        <mxCell id="1" parent="0" />
      </root>
    </mxGraphModel>
  </diagram>
</mxfile>
